# xmcd
#
# Track frame offsets:
#	150
#	16100
#	33232
#	52350
#	69552
#	90282
#	109532
#	129557
#	148687
#	164727
#	184522
#	198262
#	208442
#
# Disc length: 3013 seconds
#
# Revision: 1
# Processed by: cddbd v1.4PL0 Copyright (c) Steve Scherf et al.
# Submitted via: audiograbber 1.82.02
#
DISCID=b90bc30d
DTITLE=Angelique Kidjo - Black Ivory Soul
DYEAR=2002
DGENRE=Alternative
TTITLE0=Bahia
TTITLE1=Iwoya
TTITLE2=Olofoofo
TTITLE3=Tumba
TTITLE4=Black Ivory Soul
TTITLE5=Refavela
TTITLE6=Iemanja
TTITLE7=Afirika
TTITLE8=Okan Bale
TTITLE9=Ominira
TTITLE10=Mondjuba
TTITLE11=Ces Petits Riens
TTITLE12=Ne Cedez Jamais
EXTD=
EXTT0=
EXTT1=
EXTT2=
EXTT3=
EXTT4=
EXTT5=
EXTT6=
EXTT7=
EXTT8=
EXTT9=
EXTT10=
EXTT11=
EXTT12=
PLAYORDER=
